HIERARCHY
ROOT Hips
{
	OFFSET	0.00	0.00	0.00
	CHANNELS 6 Xposition Yposition Zposition Zrotation Xrotation Yrotation
	JOINT LeftUpLeg
	{
		OFFSET	 0.126116	-0.014019	-0.065224
		CHANNELS 3 Zrotation Xrotation Yrotation
		JOINT LeftLeg
		{
			OFFSET	 0.000000	 0.000000	 0.569914
			CHANNELS 3 Zrotation Xrotation Yrotation
			JOINT LeftFoot
			{
				OFFSET	 0.000000	 0.000000	 0.544423
				CHANNELS 3 Zrotation Xrotation Yrotation
				JOINT LeftToeBase
				{
					OFFSET	 0.000000	 0.000000	 0.207117
					CHANNELS 3 Zrotation Xrotation Yrotation
					End Site
					{
						OFFSET	 0.000000	 0.000000	 0.207117
					}
				}
			}
		}
	}
	JOINT RightUpLeg
	{
		OFFSET	-0.124023	-0.008373	-0.065224
		CHANNELS 3 Zrotation Xrotation Yrotation
		JOINT RightLeg
		{
			OFFSET	 0.000000	 0.000000	 0.570047
			CHANNELS 3 Zrotation Xrotation Yrotation
			JOINT RightFoot
			{
				OFFSET	 0.000000	 0.000000	 0.544354
				CHANNELS 3 Zrotation Xrotation Yrotation
				JOINT RightToeBase
				{
					OFFSET	 0.000000	 0.000000	 0.207540
					CHANNELS 3 Zrotation Xrotation Yrotation
					End Site
					{
						OFFSET	 0.000000	 0.000000	 0.207540
					}
				}
			}
		}
	}
	JOINT Spine
	{
		OFFSET	 0.000184	-0.007763	 0.117403
		CHANNELS 3 Zrotation Xrotation Yrotation
		JOINT Spine1
		{
			OFFSET	 0.000000	 0.000000	 0.137269
			CHANNELS 3 Zrotation Xrotation Yrotation
			JOINT Spine2
			{
				OFFSET	 0.000000	 0.000000	 0.156879
				CHANNELS 3 Zrotation Xrotation Yrotation
				JOINT LeftShoulder
				{
					OFFSET	 0.080501	-0.002496	 0.160144
					CHANNELS 3 Zrotation Xrotation Yrotation
					JOINT LeftArm
					{
						OFFSET	 0.000000	 0.000000	 0.164363
						CHANNELS 3 Zrotation Xrotation Yrotation
						JOINT LeftForeArm
						{
							OFFSET	 0.000000	 0.000000	 0.364576
							CHANNELS 3 Zrotation Xrotation Yrotation
							JOINT LeftHand
							{
								OFFSET	 0.000000	 0.000000	 0.360812
								CHANNELS 3 Zrotation Xrotation Yrotation
								JOINT LeftHandIndex1
								{
									OFFSET	 0.000000	 0.000000	 0.086006
									CHANNELS 3 Zrotation Xrotation Yrotation
									JOINT LeftHandIndex2
									{
										OFFSET	 0.000000	 0.000000	 0.047237
										CHANNELS 3 Zrotation Xrotation Yrotation
										JOINT LeftHandIndex3
										{
											OFFSET	-0.004284	-0.000551	 0.038165
											CHANNELS 3 Zrotation Xrotation Yrotation
											End Site
											{
												OFFSET	-0.004284	-0.000551	 0.038165
											}
										}
									}
								}
							}
						}
					}
				}
				JOINT Neck
				{
					OFFSET	 0.000000	 0.000000	 0.176489
					CHANNELS 3 Zrotation Xrotation Yrotation
					JOINT Head
					{
						OFFSET	 0.000000	-0.001747	 0.077940
						CHANNELS 3 Zrotation Xrotation Yrotation
						End Site
						{
							OFFSET	 0.000000	-0.001747	 0.077940
						}
					}
				}
				JOINT RightShoulder
				{
					OFFSET	-0.080363	 0.000306	 0.159706
					CHANNELS 3 Zrotation Xrotation Yrotation
					JOINT RightArm
					{
						OFFSET	 0.000000	 0.000000	 0.164196
						CHANNELS 3 Zrotation Xrotation Yrotation
						JOINT RightForeArm
						{
							OFFSET	 0.000000	 0.000000	 0.365611
							CHANNELS 3 Zrotation Xrotation Yrotation
							JOINT RightHand
							{
								OFFSET	 0.000000	 0.000000	 0.360648
								CHANNELS 3 Zrotation Xrotation Yrotation
								JOINT RightHandIndex1
								{
									OFFSET	 0.000000	 0.000000	 0.069977
									CHANNELS 3 Zrotation Xrotation Yrotation
									JOINT RightHandIndex2
									{
										OFFSET	 0.000000	 0.000000	 0.052305
										CHANNELS 3 Zrotation Xrotation Yrotation
										JOINT RightHandIndex3
										{
											OFFSET	 0.009002	-0.000782	 0.042196
											CHANNELS 3 Zrotation Xrotation Yrotation
											End Site
											{
												OFFSET	 0.009002	-0.000782	 0.042196
											}
										}
									}
								}
							}
						}
					}
				}
			}
		}
	}
}
MOTION
Frames:    4
Frame Time: 0.03333334
-0.448021	-0.033207	 1.271932	-179.962000	-2.496544	 0.754958	-19.678750	-0.083060	-175.813000	-1.539376	-11.690670	-0.425865	-0.039947	 71.281790	-15.906630	-2.385833	 28.452760	 0.000004	 41.941690	-2.357384	 173.124300	-1.036430	-9.541930	-0.424487	 8.943732	 66.594930	 9.937371	 2.384659	 28.388700	-0.000001	-2.211082	 8.575035	-1.198650	-0.287045	-4.097640	-0.776377	 2.412533	 4.127152	 2.158062	-91.776180	 78.527400	-180.000000	-22.626460	-8.859540	-1.408868	 3.185829	-2.195175	-22.936870	-1.288568	-10.959230	-2.884668	-4.130319	 21.525730	 0.991547	-5.167930	 0.731704	 3.519349	-1.378229	 35.397820	-2.634230	-1.511261	-1.337739	 0.754576	-11.510450	-19.012210	-7.376883	 89.782100	 78.203830	-180.000000	 4.830418	-11.939540	-3.598105	-14.169060	-4.039473	 26.286260	 0.436254	 33.327020	 72.249110	 5.716227	 19.173190	-3.685159	 5.027444	 0.246877	-9.377972	-2.350882	 35.473990	 5.254307
-0.448517	-0.033254	 1.271893	-179.920600	-3.575019	 1.101297	-12.037860	 1.099498	-176.666800	-5.012674	-12.729140	-1.231911	 13.378140	 72.116910	-26.882350	-2.385833	 28.452760	 0.000004	 43.054420	-1.513075	 172.096800	 1.009445	-8.872149	-0.079151	 1.097462	 64.868950	 16.538380	 2.384659	 28.388700	-0.000001	-1.749089	 9.496883	-1.984276	-0.117887	-1.630119	-0.772324	 1.828542	 0.204986	 2.959130	-91.776160	 78.527360	 180.000000	-36.056920	-5.291566	-0.414264	 1.919633	-2.173576	-29.051990	-0.393423	-13.147680	-2.045279	-4.130319	 21.525730	 0.991547	-5.167930	 0.731704	 3.519349	-1.378229	 35.397820	-2.634230	-2.194685	-0.264674	 1.171311	-12.642520	-23.462560	-10.618990	 89.782030	 78.203870	-180.000000	 10.989310	-10.199940	-5.124229	-15.135300	-5.710378	 31.897100	-4.107960	 43.294500	 96.046690	 5.716227	 19.173190	-3.685159	 5.027444	 0.246877	-9.377972	-2.350882	 35.473990	 5.254307
-0.448915	-0.033400	 1.271625	-179.804500	-4.274810	 1.546653	-6.722018	 1.033502	-177.658100	-7.530929	-15.101910	-2.121518	 23.760370	 73.337090	-35.552540	-2.385833	 28.452760	 0.000004	 43.420860	-1.670849	 171.364800	 2.406534	-9.769979	 0.149994	-4.797900	 63.870440	 21.801430	 2.384659	 28.388700	-0.000001	-1.494088	 10.089700	-2.587083	-0.072865	 0.136565	-1.208395	 1.411207	-2.564488	 3.718300	-91.776240	 78.527400	-180.000000	-49.083890	-0.741226	 4.574679	 0.683565	-2.372904	-41.602610	-0.124671	-13.563440	-1.795933	-4.130319	 21.525730	 0.991547	-5.167930	 0.731704	 3.519349	-1.378229	 35.397820	-2.634230	-2.726590	 0.559569	 1.608535	-13.786280	-26.643120	-13.362790	 89.782030	 78.203850	-180.000000	 17.965950	-7.946595	-9.025994	-14.666570	-8.146209	 43.087300	-5.976022	 51.994740	 108.596300	 5.716227	 19.173190	-3.685159	 5.027444	 0.246877	-9.377972	-2.350882	 35.473990	 5.254307
-0.449302	-0.033762	 1.270778	-179.621000	-4.573710	 2.093784	-3.672853	-0.420056	-178.515200	-9.202711	-19.294860	-3.254460	 30.376920	 75.604640	-41.059780	-2.385833	 28.452760	 0.000004	 42.946000	-3.148355	 171.059400	 3.239255	-13.101850	 0.389237	-8.216538	 64.464250	 24.910270	 2.384659	 28.388700	-0.000001	-1.564889	 10.339260	-2.989564	-0.190583	 1.263628	-2.131767	 1.169526	-4.193896	 4.526551	-91.776120	 78.527400	 180.000000	-57.046980	 4.056332	 14.313490	-0.661474	-2.529024	-62.342460	-0.627516	-12.569530	-2.059574	-4.130319	 21.525730	 0.991547	-5.167930	 0.731704	 3.519349	-1.378229	 35.397820	-2.634230	-3.085900	 1.110175	 2.037745	-14.735830	-28.501530	-15.394520	 89.782130	 78.203850	 180.000000	 21.677570	-4.792564	-16.073920	-11.761490	-10.937700	 62.214660	 1.466689	 56.368980	 104.607700	 5.716227	 19.173190	-3.685159	 5.027444	 0.246877	-9.377972	-2.350882	 35.473990	 5.254307
